# Exported from Wings 3D 0.98.32a
mtllib test_mesh.mtl
o cube1
#8 vertices, 6 faces
v -1.00000000 1.92260978 1.00000000
v -1.00000000 3.92260978 1.00000000
v 1.00000000 3.92260978 1.00000000
v 1.00000000 1.92260978 1.00000000
v -1.00000000 1.92260978 -1.00000000
v -1.00000000 3.92260978 -1.00000000
v 1.00000000 3.92260978 -1.00000000
v 1.00000000 1.92260978 -1.00000000
vn -0.57735027 -0.57735027 0.57735027
vn -0.57735027 0.57735027 0.57735027
vn 0.57735027 0.57735027 0.57735027
vn 0.57735027 -0.57735027 0.57735027
vn -0.57735027 -0.57735027 -0.57735027
vn -0.57735027 0.57735027 -0.57735027
vn 0.57735027 0.57735027 -0.57735027
vn 0.57735027 -0.57735027 -0.57735027
g cube1_color_256_000_000
usemtl color_256_000_000
f 1//1 4//4 3//3 2//2
f 1//1 5//5 8//8 4//4
f 2//2 6//6 5//5 1//1
f 3//3 7//7 6//6 2//2
f 4//4 8//8 7//7 3//3
f 6//6 7//7 8//8 5//5
o cylinder2
#32 vertices, 18 faces
v -1.70643200 1.00000000 0.0000000e+0
v -1.78255247 1.00000000 0.38268343
v -1.99932522 1.00000000 0.70710678
v -2.32374857 1.00000000 0.92387953
v -2.70643200 1.00000000 1.00000000
v -3.08911543 1.00000000 0.92387953
v -3.41353878 1.00000000 0.70710678
v -3.63031153 1.00000000 0.38268343
v -3.70643200 1.00000000 1.2246064e-16
v -3.63031153 1.00000000 -0.38268343
v -3.41353878 1.00000000 -0.70710678
v -3.08911543 1.00000000 -0.92387953
v -2.70643200 1.00000000 -1.00000000
v -2.32374857 1.00000000 -0.92387953
v -1.99932522 1.00000000 -0.70710678
v -1.78255247 1.00000000 -0.38268343
v -1.70643200 -1.00000000 0.0000000e+0
v -1.78255247 -1.00000000 0.38268343
v -1.99932522 -1.00000000 0.70710678
v -2.32374857 -1.00000000 0.92387953
v -2.70643200 -1.00000000 1.00000000
v -3.08911543 -1.00000000 0.92387953
v -3.41353878 -1.00000000 0.70710678
v -3.63031153 -1.00000000 0.38268343
v -3.70643200 -1.00000000 1.2246064e-16
v -3.63031153 -1.00000000 -0.38268343
v -3.41353878 -1.00000000 -0.70710678
v -3.08911543 -1.00000000 -0.92387953
v -2.70643200 -1.00000000 -1.00000000
v -2.32374857 -1.00000000 -0.92387953
v -1.99932522 -1.00000000 -0.70710678
v -1.78255247 -1.00000000 -0.38268343
vn 0.89090915 0.45418155 0.0000000e+0
vn 0.82309273 0.45418155 0.34093617
vn 0.62996790 0.45418155 0.62996790
vn 0.34093617 0.45418155 0.82309273
vn 0.0000000e+0 0.45418155 0.89090915
vn -0.34093617 0.45418155 0.82309273
vn -0.62996790 0.45418155 0.62996790
vn -0.82309273 0.45418155 0.34093617
vn -0.89090915 0.45418155 5.0424281e-17
vn -0.82309273 0.45418155 -0.34093617
vn -0.62996790 0.45418155 -0.62996790
vn -0.34093617 0.45418155 -0.82309273
vn 0.0000000e+0 0.45418155 -0.89090915
vn 0.34093617 0.45418155 -0.82309273
vn 0.62996790 0.45418155 -0.62996790
vn 0.82309273 0.45418155 -0.34093617
vn 0.89090915 -0.45418155 0.0000000e+0
vn 0.82309273 -0.45418155 0.34093617
vn 0.62996790 -0.45418155 0.62996790
vn 0.34093617 -0.45418155 0.82309273
vn 0.0000000e+0 -0.45418155 0.89090915
vn -0.34093617 -0.45418155 0.82309273
vn -0.62996790 -0.45418155 0.62996790
vn -0.82309273 -0.45418155 0.34093617
vn -0.89090915 -0.45418155 5.0424281e-17
vn -0.82309273 -0.45418155 -0.34093617
vn -0.62996790 -0.45418155 -0.62996790
vn -0.34093617 -0.45418155 -0.82309273
vn 0.0000000e+0 -0.45418155 -0.89090915
vn 0.34093617 -0.45418155 -0.82309273
vn 0.62996790 -0.45418155 -0.62996790
vn 0.82309273 -0.45418155 -0.34093617
g cylinder2_color_000_000_256
usemtl color_000_000_256
f 9//9 24//24 23//23 22//22 21//21 20//20 19//19 18//18 17//17 16//16 15//15 14//14 13//13 12//12 11//11 10//10
f 9//9 25//25 40//40 24//24
f 10//10 26//26 25//25 9//9
f 11//11 27//27 26//26 10//10
f 12//12 28//28 27//27 11//11
f 13//13 29//29 28//28 12//12
f 14//14 30//30 29//29 13//13
f 15//15 31//31 30//30 14//14
f 16//16 32//32 31//31 15//15
f 17//17 33//33 32//32 16//16
f 18//18 34//34 33//33 17//17
f 19//19 35//35 34//34 18//18
f 20//20 36//36 35//35 19//19
f 21//21 37//37 36//36 20//20
f 22//22 38//38 37//37 21//21
f 23//23 39//39 38//38 22//22
f 24//24 40//40 39//39 23//23
f 26//26 27//27 28//28 29//29 30//30 31//31 32//32 33//33 34//34 35//35 36//36 37//37 38//38 39//39 40//40 25//25
o sphere3
#114 vertices, 128 faces
v 0.38268343 0.92387953 0.0000000e+0
v 0.35355339 0.92387953 0.14644661
v 0.27059805 0.92387953 0.27059805
v 0.14644661 0.92387953 0.35355339
v 2.3431828e-17 0.92387953 0.38268343
v -0.14644661 0.92387953 0.35355339
v -0.27059805 0.92387953 0.27059805
v -0.35355339 0.92387953 0.14644661
v -0.38268343 0.92387953 4.6863656e-17
v -0.35355339 0.92387953 -0.14644661
v -0.27059805 0.92387953 -0.27059805
v -0.14644661 0.92387953 -0.35355339
v -7.0295484e-17 0.92387953 -0.38268343
v 0.14644661 0.92387953 -0.35355339
v 0.27059805 0.92387953 -0.27059805
v 0.35355339 0.92387953 -0.14644661
v 0.70710678 0.70710678 0.0000000e+0
v 0.65328148 0.70710678 0.27059805
v 0.50000000 0.70710678 0.50000000
v 0.27059805 0.70710678 0.65328148
v 4.3296373e-17 0.70710678 0.70710678
v -0.27059805 0.70710678 0.65328148
v -0.50000000 0.70710678 0.50000000
v -0.65328148 0.70710678 0.27059805
v -0.70710678 0.70710678 8.6592746e-17
v -0.65328148 0.70710678 -0.27059805
v -0.50000000 0.70710678 -0.50000000
v -0.27059805 0.70710678 -0.65328148
v -1.2988912e-16 0.70710678 -0.70710678
v 0.27059805 0.70710678 -0.65328148
v 0.50000000 0.70710678 -0.50000000
v 0.65328148 0.70710678 -0.27059805
v 0.92387953 0.38268343 0.0000000e+0
v 0.85355339 0.38268343 0.35355339
v 0.65328148 0.38268343 0.65328148
v 0.35355339 0.38268343 0.85355339
v 5.6569437e-17 0.38268343 0.92387953
v -0.35355339 0.38268343 0.85355339
v -0.65328148 0.38268343 0.65328148
v -0.85355339 0.38268343 0.35355339
v -0.92387953 0.38268343 1.1313887e-16
v -0.85355339 0.38268343 -0.35355339
v -0.65328148 0.38268343 -0.65328148
v -0.35355339 0.38268343 -0.85355339
v -1.6970831e-16 0.38268343 -0.92387953
v 0.35355339 0.38268343 -0.85355339
v 0.65328148 0.38268343 -0.65328148
v 0.85355339 0.38268343 -0.35355339
v 1.00000000 6.1230318e-17 0.0000000e+0
v 0.92387953 6.1230318e-17 0.38268343
v 0.70710678 6.1230318e-17 0.70710678
v 0.38268343 6.1230318e-17 0.92387953
v 6.1230318e-17 6.1230318e-17 1.00000000
v -0.38268343 6.1230318e-17 0.92387953
v -0.70710678 6.1230318e-17 0.70710678
v -0.92387953 6.1230318e-17 0.38268343
v -1.00000000 6.1230318e-17 1.2246064e-16
v -0.92387953 6.1230318e-17 -0.38268343
v -0.70710678 6.1230318e-17 -0.70710678
v -0.38268343 6.1230318e-17 -0.92387953
v -1.8369095e-16 6.1230318e-17 -1.00000000
v 0.38268343 6.1230318e-17 -0.92387953
v 0.70710678 6.1230318e-17 -0.70710678
v 0.92387953 6.1230318e-17 -0.38268343
v 0.92387953 -0.38268343 0.0000000e+0
v 0.85355339 -0.38268343 0.35355339
v 0.65328148 -0.38268343 0.65328148
v 0.35355339 -0.38268343 0.85355339
v 5.6569437e-17 -0.38268343 0.92387953
v -0.35355339 -0.38268343 0.85355339
v -0.65328148 -0.38268343 0.65328148
v -0.85355339 -0.38268343 0.35355339
v -0.92387953 -0.38268343 1.1313887e-16
v -0.85355339 -0.38268343 -0.35355339
v -0.65328148 -0.38268343 -0.65328148
v -0.35355339 -0.38268343 -0.85355339
v -1.6970831e-16 -0.38268343 -0.92387953
v 0.35355339 -0.38268343 -0.85355339
v 0.65328148 -0.38268343 -0.65328148
v 0.85355339 -0.38268343 -0.35355339
v 0.70710678 -0.70710678 0.0000000e+0
v 0.65328148 -0.70710678 0.27059805
v 0.50000000 -0.70710678 0.50000000
v 0.27059805 -0.70710678 0.65328148
v 4.3296373e-17 -0.70710678 0.70710678
v -0.27059805 -0.70710678 0.65328148
v -0.50000000 -0.70710678 0.50000000
v -0.65328148 -0.70710678 0.27059805
v -0.70710678 -0.70710678 8.6592746e-17
v -0.65328148 -0.70710678 -0.27059805
v -0.50000000 -0.70710678 -0.50000000
v -0.27059805 -0.70710678 -0.65328148
v -1.2988912e-16 -0.70710678 -0.70710678
v 0.27059805 -0.70710678 -0.65328148
v 0.50000000 -0.70710678 -0.50000000
v 0.65328148 -0.70710678 -0.27059805
v 0.38268343 -0.92387953 0.0000000e+0
v 0.35355339 -0.92387953 0.14644661
v 0.27059805 -0.92387953 0.27059805
v 0.14644661 -0.92387953 0.35355339
v 2.3431828e-17 -0.92387953 0.38268343
v -0.14644661 -0.92387953 0.35355339
v -0.27059805 -0.92387953 0.27059805
v -0.35355339 -0.92387953 0.14644661
v -0.38268343 -0.92387953 4.6863656e-17
v -0.35355339 -0.92387953 -0.14644661
v -0.27059805 -0.92387953 -0.27059805
v -0.14644661 -0.92387953 -0.35355339
v -7.0295484e-17 -0.92387953 -0.38268343
v 0.14644661 -0.92387953 -0.35355339
v 0.27059805 -0.92387953 -0.27059805
v 0.35355339 -0.92387953 -0.14644661
v 0.0000000e+0 1.00000000 0.0000000e+0
v 0.0000000e+0 -1.00000000 0.0000000e+0
vn 0.38219484 0.92408176 0.0000000e+0
vn 0.35310199 0.92408176 0.14625963
vn 0.27025256 0.92408176 0.27025256
vn 0.14625963 0.92408176 0.35310199
vn 7.0989808e-18 0.92408176 0.38219484
vn -0.14625963 0.92408176 0.35310199
vn -0.27025256 0.92408176 0.27025256
vn -0.35310199 0.92408176 0.14625963
vn -0.38219484 0.92408176 2.1296943e-17
vn -0.35310199 0.92408176 -0.14625963
vn -0.27025256 0.92408176 -0.27025256
vn -0.14625963 0.92408176 -0.35310199
vn -3.5494904e-17 0.92408176 -0.38219484
vn 0.14625963 0.92408176 -0.35310199
vn 0.27025256 0.92408176 -0.27025256
vn 0.35310199 0.92408176 -0.14625963
vn 0.70658449 0.70762868 -2.8577294e-17
vn 0.65279895 0.70762868 0.27039818
vn 0.49963069 0.70762868 0.49963069
vn 0.27039818 0.70762868 0.65279895
vn 0.0000000e+0 0.70762868 0.70658449
vn -0.27039818 0.70762868 0.65279895
vn -0.49963069 0.70762868 0.49963069
vn -0.65279895 0.70762868 0.27039818
vn -0.70658449 0.70762868 7.1443235e-17
vn -0.65279895 0.70762868 -0.27039818
vn -0.49963069 0.70762868 -0.49963069
vn -0.27039818 0.70762868 -0.65279895
vn -5.7154588e-17 0.70762868 -0.70658449
vn 0.27039818 0.70762868 -0.65279895
vn 0.49963069 0.70762868 -0.49963069
vn 0.65279895 0.70762868 -0.27039818
vn 0.92368211 0.38315969 -2.8758115e-17
vn 0.85337100 0.38315969 0.35347784
vn 0.65314189 0.38315969 0.65314189
vn 0.35347784 0.38315969 0.85337100
vn 1.4379058e-17 0.38315969 0.92368211
vn -0.35347784 0.38315969 0.85337100
vn -0.65314189 0.38315969 0.65314189
vn -0.85337100 0.38315969 0.35347784
vn -0.92368211 0.38315969 8.6274346e-17
vn -0.85337100 0.38315969 -0.35347784
vn -0.65314189 0.38315969 -0.65314189
vn -0.35347784 0.38315969 -0.85337100
vn -7.9084817e-17 0.38315969 -0.92368211
vn 0.35347784 0.38315969 -0.85337100
vn 0.65314189 0.38315969 -0.65314189
vn 0.85337100 0.38315969 -0.35347784
vn 1.00000000 4.3249275e-17 0.0000000e+0
vn 0.92387953 5.0457488e-17 0.38268343
vn 0.70710678 5.7665700e-17 0.70710678
vn 0.38268343 7.2082126e-18 0.92387953
vn 2.8832850e-17 -7.9290338e-17 1.00000000
vn -0.38268343 -2.8832850e-17 0.92387953
vn -0.70710678 3.6041063e-17 0.70710678
vn -0.92387953 7.2082126e-18 0.38268343
vn -1.00000000 2.1624638e-17 5.7665701e-17
vn -0.92387953 3.6041063e-17 -0.38268343
vn -0.70710678 5.7665700e-17 -0.70710678
vn -0.38268343 0.0000000e+0 -0.92387953
vn -7.9290338e-17 -7.2082126e-17 -1.00000000
vn 0.38268343 -1.4416425e-17 -0.92387953
vn 0.70710678 3.6041063e-17 -0.70710678
vn 0.92387953 2.8832850e-17 -0.38268343
vn 0.92368211 -0.38315969 -5.7516231e-17
vn 0.85337100 -0.38315969 0.35347784
vn 0.65314189 -0.38315969 0.65314189
vn 0.35347784 -0.38315969 0.85337100
vn 1.4379058e-17 -0.38315969 0.92368211
vn -0.35347784 -0.38315969 0.85337100
vn -0.65314189 -0.38315969 0.65314189
vn -0.85337100 -0.38315969 0.35347784
vn -0.92368211 -0.38315969 1.2222199e-16
vn -0.85337100 -0.38315969 -0.35347784
vn -0.65314189 -0.38315969 -0.65314189
vn -0.35347784 -0.38315969 -0.85337100
vn -7.1895288e-17 -0.38315969 -0.92368211
vn 0.35347784 -0.38315969 -0.85337100
vn 0.65314189 -0.38315969 -0.65314189
vn 0.85337100 -0.38315969 -0.35347784
vn 0.70658449 -0.70762868 -5.7154588e-17
vn 0.65279895 -0.70762868 0.27039818
vn 0.49963069 -0.70762868 0.49963069
vn 0.27039818 -0.70762868 0.65279895
vn 1.7860809e-17 -0.70762868 0.70658449
vn -0.27039818 -0.70762868 0.65279895
vn -0.49963069 -0.70762868 0.49963069
vn -0.65279895 -0.70762868 0.27039818
vn -0.70658449 -0.70762868 1.0359269e-16
vn -0.65279895 -0.70762868 -0.27039818
vn -0.49963069 -0.70762868 -0.49963069
vn -0.27039818 -0.70762868 -0.65279895
vn -6.0726750e-17 -0.70762868 -0.70658449
vn 0.27039818 -0.70762868 -0.65279895
vn 0.49963069 -0.70762868 -0.49963069
vn 0.65279895 -0.70762868 -0.27039818
vn 0.38219484 -0.92408176 0.0000000e+0
vn 0.35310199 -0.92408176 0.14625963
vn 0.27025256 -0.92408176 0.27025256
vn 0.14625963 -0.92408176 0.35310199
vn 1.2423216e-17 -0.92408176 0.38219484
vn -0.14625963 -0.92408176 0.35310199
vn -0.27025256 -0.92408176 0.27025256
vn -0.35310199 -0.92408176 0.14625963
vn -0.38219484 -0.92408176 1.7747452e-17
vn -0.35310199 -0.92408176 -0.14625963
vn -0.27025256 -0.92408176 -0.27025256
vn -0.14625963 -0.92408176 -0.35310199
vn -3.0170669e-17 -0.92408176 -0.38219484
vn 0.14625963 -0.92408176 -0.35310199
vn 0.27025256 -0.92408176 -0.27025256
vn 0.35310199 -0.92408176 -0.14625963
vn 1.7700400e-18 1.00000000 7.9651798e-18
vn 1.7700400e-18 -1.00000000 -4.4250999e-18
g sphere3_color_000_256_000
usemtl color_000_256_000
f 41//41 57//57 72//72 56//56
f 41//41 153//153 42//42
f 42//42 58//58 57//57 41//41
f 42//42 153//153 43//43
f 43//43 59//59 58//58 42//42
f 43//43 153//153 44//44
f 44//44 60//60 59//59 43//43
f 44//44 153//153 45//45
f 45//45 61//61 60//60 44//44
f 45//45 153//153 46//46
f 46//46 62//62 61//61 45//45
f 46//46 153//153 47//47
f 47//47 63//63 62//62 46//46
f 47//47 153//153 48//48
f 48//48 64//64 63//63 47//47
f 48//48 153//153 49//49
f 49//49 65//65 64//64 48//48
f 49//49 153//153 50//50
f 50//50 66//66 65//65 49//49
f 50//50 153//153 51//51
f 51//51 67//67 66//66 50//50
f 51//51 153//153 52//52
f 52//52 68//68 67//67 51//51
f 52//52 153//153 53//53
f 53//53 69//69 68//68 52//52
f 53//53 153//153 54//54
f 54//54 70//70 69//69 53//53
f 54//54 153//153 55//55
f 55//55 71//71 70//70 54//54
f 55//55 153//153 56//56
f 56//56 72//72 71//71 55//55
f 56//56 153//153 41//41
f 57//57 73//73 88//88 72//72
f 58//58 74//74 73//73 57//57
f 59//59 75//75 74//74 58//58
f 60//60 76//76 75//75 59//59
f 61//61 77//77 76//76 60//60
f 62//62 78//78 77//77 61//61
f 63//63 79//79 78//78 62//62
f 64//64 80//80 79//79 63//63
f 65//65 81//81 80//80 64//64
f 66//66 82//82 81//81 65//65
f 67//67 83//83 82//82 66//66
f 68//68 84//84 83//83 67//67
f 69//69 85//85 84//84 68//68
f 70//70 86//86 85//85 69//69
f 71//71 87//87 86//86 70//70
f 72//72 88//88 87//87 71//71
f 73//73 89//89 104//104 88//88
f 74//74 90//90 89//89 73//73
f 75//75 91//91 90//90 74//74
f 76//76 92//92 91//91 75//75
f 77//77 93//93 92//92 76//76
f 78//78 94//94 93//93 77//77
f 79//79 95//95 94//94 78//78
f 80//80 96//96 95//95 79//79
f 81//81 97//97 96//96 80//80
f 82//82 98//98 97//97 81//81
f 83//83 99//99 98//98 82//82
f 84//84 100//100 99//99 83//83
f 85//85 101//101 100//100 84//84
f 86//86 102//102 101//101 85//85
f 87//87 103//103 102//102 86//86
f 88//88 104//104 103//103 87//87
f 89//89 105//105 120//120 104//104
f 90//90 106//106 105//105 89//89
f 91//91 107//107 106//106 90//90
f 92//92 108//108 107//107 91//91
f 93//93 109//109 108//108 92//92
f 94//94 110//110 109//109 93//93
f 95//95 111//111 110//110 94//94
f 96//96 112//112 111//111 95//95
f 97//97 113//113 112//112 96//96
f 98//98 114//114 113//113 97//97
f 99//99 115//115 114//114 98//98
f 100//100 116//116 115//115 99//99
f 101//101 117//117 116//116 100//100
f 102//102 118//118 117//117 101//101
f 103//103 119//119 118//118 102//102
f 104//104 120//120 119//119 103//103
f 105//105 121//121 136//136 120//120
f 106//106 122//122 121//121 105//105
f 107//107 123//123 122//122 106//106
f 108//108 124//124 123//123 107//107
f 109//109 125//125 124//124 108//108
f 110//110 126//126 125//125 109//109
f 111//111 127//127 126//126 110//110
f 112//112 128//128 127//127 111//111
f 113//113 129//129 128//128 112//112
f 114//114 130//130 129//129 113//113
f 115//115 131//131 130//130 114//114
f 116//116 132//132 131//131 115//115
f 117//117 133//133 132//132 116//116
f 118//118 134//134 133//133 117//117
f 119//119 135//135 134//134 118//118
f 120//120 136//136 135//135 119//119
f 121//121 137//137 152//152 136//136
f 122//122 138//138 137//137 121//121
f 123//123 139//139 138//138 122//122
f 124//124 140//140 139//139 123//123
f 125//125 141//141 140//140 124//124
f 126//126 142//142 141//141 125//125
f 127//127 143//143 142//142 126//126
f 128//128 144//144 143//143 127//127
f 129//129 145//145 144//144 128//128
f 130//130 146//146 145//145 129//129
f 131//131 147//147 146//146 130//130
f 132//132 148//148 147//147 131//131
f 133//133 149//149 148//148 132//132
f 134//134 150//150 149//149 133//133
f 135//135 151//151 150//150 134//134
f 136//136 152//152 151//151 135//135
f 137//137 154//154 152//152
f 138//138 154//154 137//137
f 139//139 154//154 138//138
f 140//140 154//154 139//139
f 141//141 154//154 140//140
f 142//142 154//154 141//141
f 143//143 154//154 142//142
f 144//144 154//154 143//143
f 145//145 154//154 144//144
f 146//146 154//154 145//145
f 147//147 154//154 146//146
f 148//148 154//154 147//147
f 149//149 154//154 148//148
f 150//150 154//154 149//149
f 151//151 154//154 150//150
f 152//152 154//154 151//151
